inDegrees=no
num_controls=7
num_derivatives=13
num_iterations=204
num_multipliers=7
num_parameters=0
num_slacks=7
num_states=26
objective=0.509517
objective_accelerations=0.041572
objective_balance=0.003538
objective_effort=0.029450
objective_height=0.322474
objective_ligament=0.112483
solver_duration=2607.419025
status=Solve_Succeeded
success=true
DataType=double
version=3
OpenSimVersion=4.5
endheader
time	/jointset/ground_pelvis/pelvis_tilt/value	/jointset/ground_pelvis/pelvis_tx/value	/jointset/ground_pelvis/pelvis_ty/value	/jointset/hip_l/hip_flexion_l/value	/jointset/hip_l/hip_adduction_l/value	/jointset/hip_l/hip_rotation_l/value	/jointset/back/lumbar_extension/value	/jointset/patellofemoral_l/patellar_flexion_l/value	/jointset/knee_l/knee_flexion_l/value	/jointset/knee_l/knee_adduction_l/value	/jointset/knee_l/knee_rotation_l/value	/jointset/ankle_l/ankle_angle_l/value	/jointset/subtalar_l/subtalar_angle_l/value	/jointset/ground_pelvis/pelvis_tilt/speed	/jointset/ground_pelvis/pelvis_tx/speed	/jointset/ground_pelvis/pelvis_ty/speed	/jointset/hip_l/hip_flexion_l/speed	/jointset/hip_l/hip_adduction_l/speed	/jointset/hip_l/hip_rotation_l/speed	/jointset/back/lumbar_extension/speed	/jointset/patellofemoral_l/patellar_flexion_l/speed	/jointset/knee_l/knee_flexion_l/speed	/jointset/knee_l/knee_adduction_l/speed	/jointset/knee_l/knee_rotation_l/speed	/jointset/ankle_l/ankle_angle_l/speed	/jointset/subtalar_l/subtalar_angle_l/speed	/forceset/tau_hip_flexion_l	/forceset/tau_hip_adduction_l	/forceset/tau_hip_rotation_l	/forceset/tau_knee_flexion_l	/forceset/tau_ankle_angle_l	/forceset/tau_subtalar_angle_l	/forceset/tau_lumbar_extension	lambda_cid13_p0	lambda_cid13_p1	lambda_cid13_p2	lambda_cid13_p3	lambda_cid13_p4	lambda_cid13_p5	lambda_cid14_p0	/jointset/ground_pelvis/pelvis_tilt/accel	/jointset/ground_pelvis/pelvis_tx/accel	/jointset/ground_pelvis/pelvis_ty/accel	/jointset/hip_l/hip_flexion_l/accel	/jointset/hip_l/hip_adduction_l/accel	/jointset/hip_l/hip_rotation_l/accel	/jointset/back/lumbar_extension/accel	/jointset/patellofemoral_l/patellar_flexion_l/accel	/jointset/knee_l/knee_flexion_l/accel	/jointset/knee_l/knee_adduction_l/accel	/jointset/knee_l/knee_rotation_l/accel	/jointset/ankle_l/ankle_angle_l/accel	/jointset/subtalar_l/subtalar_angle_l/accel	gamma_cid13_p0	gamma_cid13_p1	gamma_cid13_p2	gamma_cid13_p3	gamma_cid13_p4	gamma_cid13_p5	gamma_cid14_p0
1	-0.1480326408423279	-0.07174109637767095	0.7248055677686385	1.244386883861111	-0.3317560918119427	0.02024284440698567	-0.9599082664030979	1.206275220141267	1.20627522014285	-0.09064484674711844	-0.1743063469288424	0.1920456511919184	0.02537330243933997	0.1215725582466093	0.01861955274485432	0.08017933260187314	-0.3398256419871045	0.004260207005910509	-0.08568708430126096	0.003277496836927719	-0.2205274519083754	-0.2205274519083766	0.00839803406640875	0.008767902041197153	-0.01357520653027389	0.001361089578897212	-0.3975954326526736	0.02763946593796775	-0.003621863602293462	-0.2897010159383384	0.04418109752615238	0.04001418030804808	0.4345246954738546	-35.68444447777691	-11.53832130296839	1.851536819431997	12.78286349300227	-785.9342013256125	-67.29424770999131	-0.9770772323002224	1.116749175604616	0.06919952022527966	1.260495647968883	-4.618833939702975	0.1275349783680946	-1.692967388241157	0.1830496966666577	-4.255725221587889	-4.255725221588532	0.2462460299250527	0.1487861160427503	-0.9920928133793773	-0.1971147475434885	-1.504750244007481e-08	-2.225314402233034e-08	8.577424982309672e-08	6.813606254268934e-09	-2.742322109592842e-08	6.617677996473485e-08	-1.916890044108103e-08
1.01	-0.146762087680856	-0.07155118869021829	0.7256701869663711	1.240758868445732	-0.3317064104482848	0.01930093160145989	-0.9598635506542157	1.20385746291978	1.203857462921493	-0.0905470885043573	-0.1742105217883943	0.1918606763893221	0.02537805926314225	0.1324840754705383	0.0193894817868902	0.09273620216078131	-0.3857422294706054	0.00568374265064372	-0.1026857202978293	0.005888289068990514	-0.2630271012213114	-0.2630271012213198	0.011148119763396	0.01039392580941799	-0.02340173465083348	-0.0003938165089764632	-0.3984648365168315	0.02794374833504311	-0.003675083373151472	-0.2890672836906785	0.04404345739976685	0.04027140883236936	0.4360938795190031	-35.75442543469089	-11.65501323156146	1.889822402806133	12.34778670322612	-786.8291509486882	-67.42169842026297	-1.014299724629087	1.070251830189884	0.0850179544938043	1.252029359395769	-4.572791849438042	0.1509063382708404	-1.701869087658206	0.3334894055985935	-4.247546595417329	-4.247546595417945	0.288554164825358	0.1690529792431125	-0.9752315380116036	-0.1622993044516324	-2.353787662233829e-08	-3.026679924700492e-08	1.020336177143216e-07	1.888821764393103e-08	-3.756206366987875e-08	7.146915711024526e-08	-2.254386366809908e-08
1.02	-0.1453840395802663	-0.07135275604068474	0.7266601242096016	1.236672743016163	-0.331642265032031	0.01818932095950709	-0.9597860478991787	1.201014616843311	1.201014616845152	-0.09042199653957829	-0.174098527915855	0.1915779765601961	0.02536574287305738	0.1430715460705811	0.02032454516102792	0.1052429417014351	-0.4314476448246789	0.007153017525176292	-0.1196266515861422	0.00983489806594783	-0.3055452229050837	-0.3055452229050955	0.01386477846997551	0.01200164845889344	-0.03312021183608715	-0.002053553198543248	-0.399334240380993	0.0282480307321119	-0.003728303144000546	-0.2884335514430216	0.04390581727337781	0.04052863735668122	0.4376630635641494	-35.83568151841229	-11.7680142874917	1.925558602238559	11.95885660628958	-787.8742782659233	-67.53667778556597	-1.058895844893011	1.051939850827337	0.1022263866456799	1.250469644318017	-4.576599513817484	0.1366828243279622	-1.681426446590093	0.4502130496455096	-4.259419695755155	-4.259419695755035	0.2395606318435074	0.1451258922936619	-0.9704826263181409	-0.1780808678820977	-2.582449980264867e-08	-3.767191243176499e-08	1.182160364939979e-07	1.835424333752361e-08	-4.069093536073099e-08	7.539973495269769e-08	-2.597359042611599e-08
1.03	-0.1439016327556343	-0.07114418194664524	0.727774776941062	1.232130809263285	-0.33156317249206	0.01690872293863131	-0.9596630492642185	1.197746743021044	1.197746743021461	-0.09026992573986983	-0.1739705689385544	0.1911986029659739	0.02533732297236239	0.1533633832176225	0.02141420816672957	0.1176687326930805	-0.476881136854622	0.008678382896586076	-0.1364727112025604	0.01492614984325923	-0.3480075888220117	-0.3480075888219978	0.01654846804539207	0.01358816686714203	-0.0427389691940008	-0.003609313503347382	-0.3990744312663258	0.02838545569396841	-0.003796858418038965	-0.2879119985811039	0.04431004374654829	0.04080329886654954	0.4381732441625579	-35.68601966806405	-11.93017897654745	1.9704584186018	11.47500681203342	-787.9881065441746	-67.73983175923385	-1.111291135968691	1.01083828468892	0.1159299699112935	1.235794273789648	-4.518031881108201	0.16238571674881	-1.683186515589331	0.5627793792422574	-4.236346229157699	-4.236346229153849	0.28262143079141	0.1651470476343595	-0.9552434135828132	-0.1411650996323267	-2.804781940130642e-08	-4.507081600387286e-08	1.343976700786585e-07	1.769160999340113e-08	-4.374827673644954e-08	7.931641688389443e-08	-2.94038759956737e-08
